<svg width="20" height="20" viewBox="0 0 20 20" fill="none" xmlns="http://www.w3.org/2000/svg">
<path d="M9.91483 10.7766C9.93918 10.7766 9.96352 10.7766 9.99274 10.7766C10.0025 10.7766 10.0122 10.7766 10.0219 10.7766C10.0366 10.7766 10.056 10.7766 10.0706 10.7766C11.4973 10.7559 12.6513 10.3293 13.5033 9.51336C15.3779 7.71588 15.0663 4.6345 15.0322 4.34044C14.9105 2.13295 13.6835 1.07683 12.6707 0.583972C11.916 0.215366 11.0347 0.0165666 10.0512 0H10.0171C10.0122 0 10.0025 0 9.9976 0H9.96839C9.42792 0 8.36646 0.0745496 7.34882 0.567405C6.32632 1.06026 5.07983 2.11638 4.95811 4.34044C4.92402 4.6345 4.6124 7.71588 6.487 9.51336C7.33422 10.3293 8.48819 10.7559 9.91483 10.7766ZM6.25815 4.44398C6.25815 4.43156 6.26302 4.41913 6.26302 4.41085C6.4237 1.44129 8.90206 1.12239 9.96352 1.12239H9.983C9.99274 1.12239 10.0073 1.12239 10.0219 1.12239C11.3366 1.14724 13.5715 1.60282 13.7225 4.41085C13.7225 4.42328 13.7225 4.4357 13.7273 4.44398C13.7322 4.47298 14.073 7.28929 12.5247 8.772C11.9112 9.36012 11.0931 9.65003 10.0171 9.65831C10.0073 9.65831 10.0025 9.65831 9.99274 9.65831C9.983 9.65831 9.97813 9.65831 9.96839 9.65831C8.89719 9.65003 8.07432 9.36012 7.46568 8.772C5.92218 7.29758 6.25328 4.46883 6.25815 4.44398Z" fill="black"/>
<path d="M19.9986 15.8873C19.9986 15.8832 19.9986 15.879 19.9986 15.8749C19.9986 15.8418 19.9938 15.8086 19.9938 15.7714C19.9646 14.9513 19.9013 13.0337 17.7881 12.4208C17.7735 12.4166 17.754 12.4125 17.7394 12.4083C15.5434 11.932 13.7175 10.8552 13.698 10.8428C13.401 10.6647 12.992 10.7268 12.7827 10.9795C12.5733 11.2321 12.6463 11.58 12.9433 11.7581C13.0261 11.8078 14.964 12.955 17.3888 13.4852C18.5233 13.8289 18.6499 14.8602 18.684 15.8045C18.684 15.8418 18.684 15.8749 18.6889 15.908C18.6937 16.2808 18.6645 16.8565 18.5866 17.1878C17.7978 17.5688 14.7059 18.8859 10.0024 18.8859C5.31836 18.8859 2.20702 17.5647 1.41336 17.1837C1.33545 16.8523 1.30137 16.2766 1.31111 15.9039C1.31111 15.8708 1.31598 15.8376 1.31598 15.8003C1.35006 14.856 1.47666 13.8248 2.61115 13.481C5.03595 12.9509 6.97385 11.7995 7.05662 11.754C7.35364 11.5759 7.42667 11.228 7.2173 10.9753C7.00793 10.7227 6.59893 10.6606 6.30191 10.8387C6.28244 10.8511 4.46627 11.9279 2.26058 12.4042C2.2411 12.4083 2.22649 12.4125 2.21189 12.4166C0.0987069 13.0337 0.0354089 14.9513 0.00619438 15.7672C0.00619438 15.8045 0.00619427 15.8376 0.00132519 15.8708C0.00132519 15.8749 0.00132519 15.879 0.00132519 15.8832C-0.00354389 16.0985 -0.00841287 17.2044 0.249648 17.7593C0.298339 17.867 0.385983 17.9581 0.502841 18.0203C0.648913 18.1031 4.14978 20 10.0073 20C15.8648 20 19.3657 18.099 19.5117 18.0203C19.6237 17.9581 19.7162 17.867 19.7649 17.7593C20.0084 17.2085 20.0035 16.1027 19.9986 15.8873Z" fill="black"/>
</svg>
