<svg width="48" height="48" viewBox="0 0 48 48" fill="none" xmlns="http://www.w3.org/2000/svg">
<g clip-path="url(#clip0_308_33)">
<path d="M45.7116 28.1153H44.9932V21.6451C44.9932 20.6208 44.4834 19.7139 43.7048 19.1628V18.2818C43.7048 17.0039 42.6652 15.9643 41.3873 15.9643H40.851L42.9031 12.9531C43.5909 11.9438 43.3294 10.5629 42.3201 9.875L28.3953 0.385627C27.9064 0.0523453 27.3171 -0.0706547 26.7354 0.039689C26.1541 0.149845 25.6504 0.479752 25.3172 0.968752L13.2983 18.6053H9.95381L10.7607 10.4368C10.7698 10.3448 10.8296 10.265 10.9131 10.2336C11.9527 9.84163 12.8536 9.10963 13.4498 8.1725C13.4968 8.09872 13.5854 8.05653 13.6771 8.06581L18.9229 8.58406C19.299 8.62053 19.6336 8.3466 19.6707 7.97066C19.7078 7.59472 19.4332 7.25994 19.0573 7.22281L13.8115 6.70456C13.2026 6.64494 12.6219 6.92553 12.2957 7.43816C11.8573 8.12722 11.1949 8.66535 10.4305 8.95353C9.85519 9.17047 9.46012 9.68722 9.39937 10.3023L8.57925 18.6052H7.70709L8.98322 5.68606C9.02915 5.22106 9.44419 4.87944 9.90975 4.92603L20.5104 5.97322C20.8864 6.0095 21.2212 5.73575 21.2583 5.35981C21.2954 4.98388 21.0208 4.6491 20.6449 4.61197L10.0442 3.56478C8.82881 3.44488 7.74197 4.33597 7.62187 5.55153L6.59325 15.9643H4.84153C3.56372 15.9643 2.52403 17.0039 2.52403 18.2818V18.8828C1.47862 19.3641 0.750748 20.4208 0.750748 21.6451V44.9603C0.750748 46.6365 2.11444 48.0002 3.79078 48.0002H41.9533C43.6296 48.0002 44.9932 46.6365 44.9932 44.9603V38.4902H45.7116C46.5594 38.4902 47.2492 37.8005 47.2492 36.9527V29.6529C47.2492 28.805 46.5594 28.1153 45.7116 28.1153ZM41.3873 17.3323C41.911 17.3323 42.3369 17.7583 42.3369 18.2819V18.6304C42.2111 18.6145 42.0833 18.6054 41.9533 18.6054H39.0513L39.9187 17.3323H41.3873ZM26.4475 1.739C26.575 1.55197 26.7677 1.42578 26.9901 1.3836C27.0432 1.37356 27.0966 1.3685 27.1495 1.3685C27.318 1.3685 27.4826 1.41894 27.6249 1.51588L41.5497 11.0053C41.9358 11.2684 42.0359 11.7966 41.7728 12.1827L37.396 18.6051H36.3457L38.4915 15.4563C38.8395 14.9457 38.8682 14.2958 38.5661 13.7602C38.1647 13.0486 38.0019 12.2108 38.1079 11.4009C38.1866 10.7983 37.9215 10.2102 37.416 9.86572L30.1974 4.94647C29.6918 4.60194 29.0474 4.57035 28.5155 4.86406C27.8006 5.25875 26.9613 5.41372 26.1522 5.30047C25.5522 5.21628 24.9437 5.48722 24.6008 5.99019L16.0041 18.6052H14.9537L26.4475 1.739ZM26.7487 13.3538C23.7702 13.3538 21.3252 15.6763 21.126 18.6052H17.6592L25.731 6.76053C25.7311 6.76053 25.7311 6.76053 25.7311 6.76053C25.7769 6.69313 25.853 6.653 25.9311 6.653C25.9415 6.653 25.9519 6.65375 25.9623 6.65516C27.0627 6.8091 28.2041 6.59853 29.1765 6.06163C29.253 6.01925 29.3512 6.02535 29.427 6.07691L36.6457 10.9963C36.7212 11.0478 36.7627 11.1371 36.7515 11.2237C36.6074 12.3252 36.8288 13.4646 37.3747 14.4323C37.4185 14.51 37.4132 14.6096 37.3612 14.686L34.6905 18.6051H32.3718C32.1724 15.6763 29.7275 13.3538 26.7487 13.3538ZM31.0001 18.6053H22.4975C22.6934 16.4313 24.5247 14.7218 26.7487 14.7218C28.9729 14.7217 30.8043 16.4313 31.0001 18.6053ZM3.89194 18.2818C3.89194 17.7582 4.31784 17.3322 4.84153 17.3322H6.45815L6.33244 18.6052H3.89194V18.2818ZM2.11865 21.6451C2.11865 20.7232 2.86875 19.9731 3.79078 19.9731H41.9533C42.8753 19.9731 43.6253 20.7232 43.6253 21.6451V23.543H2.11865V21.6451ZM43.6253 44.9603C43.6253 45.8822 42.8753 46.6323 41.9533 46.6323H3.79078C2.86875 46.6323 2.11865 45.8822 2.11865 44.9603V43.0624H5.80697C6.18478 43.0624 6.49087 42.7562 6.49087 42.3785C6.49087 42.0008 6.18469 41.6946 5.80697 41.6946H2.11865V24.9109H43.6253V28.1153H37.1223H37.1222C35.0732 28.1153 33.2983 29.3097 32.456 31.0385C32.4532 31.0443 32.45 31.0499 32.4471 31.0558C32.4399 31.0705 32.4337 31.0858 32.4268 31.1006C32.3265 31.3137 32.2393 31.5343 32.1683 31.7619C32.1682 31.7625 32.168 31.7631 32.1678 31.7638C32.0164 32.2502 31.9347 32.7671 31.9347 33.3027C31.9347 36.1632 34.2618 38.4902 37.1221 38.4902H37.1222H43.6252V41.6946H10.1864C9.80859 41.6946 9.5025 42.0008 9.5025 42.3785C9.5025 42.7562 9.80868 43.0624 10.1864 43.0624H43.6253V44.9603ZM45.8813 36.9526C45.8813 37.0462 45.8052 37.1223 45.7116 37.1223H37.1224C35.6744 37.1223 34.412 36.3124 33.7644 35.1219C33.735 35.0678 33.7069 35.0128 33.68 34.9573C33.6262 34.846 33.5778 34.7317 33.5349 34.6147C33.3847 34.2054 33.3028 33.7634 33.3028 33.3027C33.3028 32.8421 33.3848 32.4001 33.5349 31.9908C33.5779 31.8739 33.6263 31.7596 33.68 31.6483C33.7069 31.5927 33.735 31.5377 33.7644 31.4836C34.412 30.2931 35.6744 29.4832 37.1224 29.4832H45.7116C45.8051 29.4832 45.8813 29.5593 45.8813 29.6529V36.9526Z" fill="black"/>
<path d="M37.2826 30.5275C35.7524 30.5275 34.5076 31.7724 34.5076 33.3025C34.5076 34.8326 35.7524 36.0774 37.2826 36.0774C38.8128 36.0774 40.0576 34.8326 40.0576 33.3025C40.0576 31.7724 38.8128 30.5275 37.2826 30.5275ZM37.2826 34.7095C36.5067 34.7095 35.8755 34.0783 35.8755 33.3025C35.8755 32.5267 36.5067 31.8954 37.2826 31.8954C38.0585 31.8954 38.6897 32.5267 38.6897 33.3025C38.6897 34.0784 38.0585 34.7095 37.2826 34.7095Z" fill="black"/>
</g>
<defs>
<clipPath id="clip0_308_33">
<rect width="48" height="48" fill="white"/>
</clipPath>
</defs>
</svg>
