<svg width="48" height="48" viewBox="0 0 48 48" fill="none" xmlns="http://www.w3.org/2000/svg">
<path d="M24.7108 24.0563C25.7586 25.104 27.0935 25.8175 28.5467 26.1066C30 26.3957 31.5063 26.2473 32.8752 25.6803C34.2442 25.1132 35.4142 24.153 36.2374 22.921C37.0606 21.689 37.5 20.2405 37.5 18.7588C37.5 17.2771 37.0606 15.8286 36.2374 14.5966C35.4142 13.3646 34.2442 12.4043 32.8752 11.8373C31.5063 11.2703 30 11.1219 28.5467 11.411C27.0935 11.7 25.7586 12.4136 24.7108 13.4613C24.0124 14.1554 23.4581 14.9808 23.0799 15.89C22.7017 16.7991 22.507 17.7741 22.507 18.7588C22.507 19.7435 22.7017 20.7184 23.0799 21.6276C23.4581 22.5367 24.0124 23.3621 24.7108 24.0563ZM30.0083 12.7699C31.3938 12.7708 32.7361 13.252 33.8066 14.1316C34.8771 15.0112 35.6095 16.2348 35.879 17.5938C36.1485 18.9529 35.9384 20.3633 35.2846 21.5849C34.6308 22.8064 33.5736 23.7635 32.2933 24.293C31.0129 24.8225 29.5886 24.8917 28.263 24.4888C26.9373 24.0858 25.7924 23.2358 25.0232 22.0833C24.2541 20.9309 23.9083 19.5475 24.0448 18.1687C24.1813 16.7899 24.7917 15.5011 25.7719 14.5219C26.3278 13.9652 26.9882 13.5238 27.7152 13.223C28.4422 12.9223 29.2215 12.7681 30.0083 12.7694V12.7699Z" fill="black"/>
<path d="M46.7259 31.7962L40.6378 25.1456C40.5693 25.0709 40.4864 25.0109 40.3941 24.9692C40.3018 24.9274 40.2019 24.9049 40.1006 24.9028C39.9995 24.9011 39.8991 24.9196 39.8052 24.9573C39.7113 24.995 39.6259 25.051 39.5541 25.1222L38.31 23.8781C39.4606 22.009 39.9475 19.8067 39.6922 17.6268C39.4368 15.4469 38.4541 13.4167 36.9028 11.8641C36.4015 11.3622 35.8474 10.9162 35.25 10.5338V1.5C35.25 1.30109 35.171 1.11032 35.0303 0.96967C34.8897 0.829018 34.6989 0.75 34.5 0.75H1.5C1.30109 0.75 1.11032 0.829018 0.96967 0.96967C0.829018 1.11032 0.75 1.30109 0.75 1.5V46.5C0.75 46.6989 0.829018 46.8897 0.96967 47.0303C1.11032 47.171 1.30109 47.25 1.5 47.25H34.5C34.6989 47.25 34.8897 47.171 35.0303 47.0303C35.171 46.8897 35.25 46.6989 35.25 46.5V27.1819L36.3722 28.3041C36.2351 28.4405 36.1562 28.6246 36.152 28.818C36.1478 29.0113 36.2187 29.1987 36.3497 29.3409L42.4481 36.0019C42.4556 36.0103 42.4631 36.0187 42.4706 36.0262C42.9633 36.5179 43.6309 36.7941 44.3269 36.7941C45.0229 36.7941 45.6905 36.5179 46.1831 36.0262L46.7137 35.4956C47.2032 35.0052 47.479 34.3413 47.4813 33.6484C47.4836 32.9556 47.2121 32.2899 46.7259 31.7962ZM26.25 2.25H33.75V9.74906C33.5044 9.64687 33.2541 9.55594 33 9.47437V3.75C33 3.55109 32.921 3.36032 32.7803 3.21967C32.6397 3.07902 32.4489 3 32.25 3H26.25V2.25ZM11.25 2.25H24.75V4.875C24.7498 5.17329 24.6311 5.4593 24.4202 5.67022C24.2093 5.88115 23.9233 5.99975 23.625 6H12.375C12.0767 5.99975 11.7907 5.88115 11.5798 5.67022C11.3689 5.4593 11.2502 5.17329 11.25 4.875V2.25ZM12.375 7.5H23.625C24.321 7.49923 24.9882 7.22242 25.4803 6.73031C25.9724 6.23819 26.2492 5.57096 26.25 4.875V4.5H31.5V9.12188C31.0064 9.04627 30.5078 9.00834 30.0084 9.00844C28.728 9.00844 27.4602 9.26063 26.2773 9.75061C25.0943 10.2406 24.0195 10.9588 23.1141 11.8641C22.2088 12.7695 21.4906 13.8443 21.0006 15.0273C20.5106 16.2102 20.2584 17.478 20.2584 18.7584C20.2584 20.0388 20.5106 21.3067 21.0006 22.4896C21.4906 23.6725 22.2088 24.7474 23.1141 25.6527C24.0195 26.5581 25.0943 27.2763 26.2773 27.7663C27.4602 28.2562 28.728 28.5084 30.0084 28.5084C30.5078 28.5085 31.0064 28.4706 31.5 28.395V37.5H26.25C26.0511 37.5 25.8603 37.579 25.7197 37.7197C25.579 37.8603 25.5 38.0511 25.5 38.25V43.5H4.5V4.5H9.75V4.875C9.75077 5.57096 10.0276 6.23819 10.5197 6.73031C11.0118 7.22242 11.679 7.49923 12.375 7.5ZM30.4397 39L27 42.4397V39H30.4397ZM33.75 45.75H2.25V2.25H9.75V3H3.75C3.55109 3 3.36032 3.07902 3.21967 3.21967C3.07902 3.36032 3 3.55109 3 3.75V44.25C3 44.4489 3.07902 44.6397 3.21967 44.7803C3.36032 44.921 3.55109 45 3.75 45H26.25C26.449 45.0001 26.6398 44.9212 26.7806 44.7806L32.7806 38.7806C32.9212 38.6398 33.0001 38.449 33 38.25V28.0425C33.2541 27.9609 33.5041 27.8694 33.75 27.7678V45.75ZM35.8416 24.5916C34.688 25.7439 33.2188 26.5284 31.6195 26.8459C30.0202 27.1634 28.3626 26.9996 26.8564 26.3753C25.3502 25.7509 24.0629 24.694 23.1572 23.3382C22.2515 21.9824 21.7681 20.3885 21.7681 18.758C21.7681 17.1275 22.2515 15.5336 23.1572 14.1777C24.0629 12.8219 25.3502 11.765 26.8564 11.1407C28.3626 10.5163 30.0202 10.3525 31.6195 10.67C33.2188 10.9875 34.688 11.772 35.8416 12.9244C37.3868 14.4726 38.2547 16.5706 38.2547 18.758C38.2547 20.9454 37.3868 23.0434 35.8416 24.5916ZM36.3722 26.1825L36.8991 25.6566C36.8998 25.6549 36.9011 25.6535 36.9028 25.6528C36.9035 25.6511 36.9049 25.6498 36.9066 25.6491L37.4325 25.1222L38.4938 26.1825L37.4325 27.2438L36.3722 26.1825ZM45.6525 34.4353L45.1228 34.965C44.9136 35.1742 44.6305 35.2926 44.3346 35.2945C44.0388 35.2965 43.7541 35.1818 43.5422 34.9753L37.9406 28.8572L37.9622 28.8356L37.9631 28.8347L40.0603 26.7375L45.63 32.82C45.6375 32.8284 45.645 32.8369 45.6525 32.8444C45.8632 33.0555 45.9816 33.3416 45.9816 33.6398C45.9816 33.9381 45.8632 34.2242 45.6525 34.4353Z" fill="black"/>
<path d="M26.25 21.75H28.5C28.6989 21.75 28.8897 21.671 29.0303 21.5303C29.171 21.3897 29.25 21.1989 29.25 21V18.75C29.25 18.5511 29.171 18.3603 29.0303 18.2197C28.8897 18.079 28.6989 18 28.5 18H26.25C26.0511 18 25.8603 18.079 25.7197 18.2197C25.579 18.3603 25.5 18.5511 25.5 18.75V21C25.5 21.1989 25.579 21.3897 25.7197 21.5303C25.8603 21.671 26.0511 21.75 26.25 21.75ZM27 19.5H27.75V20.25H27V19.5Z" fill="black"/>
<path d="M31.5 21.75H33.75C33.9489 21.75 34.1397 21.671 34.2803 21.5303C34.421 21.3897 34.5 21.1989 34.5 21V16.5C34.5 16.3011 34.421 16.1103 34.2803 15.9697C34.1397 15.829 33.9489 15.75 33.75 15.75H31.5C31.3011 15.75 31.1103 15.829 30.9697 15.9697C30.829 16.1103 30.75 16.3011 30.75 16.5V21C30.75 21.1989 30.829 21.3897 30.9697 21.5303C31.1103 21.671 31.3011 21.75 31.5 21.75ZM32.25 17.25H33V20.25H32.25V17.25Z" fill="black"/>
<path d="M6.75 11.25H18.75C18.9489 11.25 19.1397 11.171 19.2803 11.0303C19.421 10.8897 19.5 10.6989 19.5 10.5C19.5 10.3011 19.421 10.1103 19.2803 9.96967C19.1397 9.82902 18.9489 9.75 18.75 9.75H6.75C6.55109 9.75 6.36032 9.82902 6.21967 9.96967C6.07902 10.1103 6 10.3011 6 10.5C6 10.6989 6.07902 10.8897 6.21967 11.0303C6.36032 11.171 6.55109 11.25 6.75 11.25Z" fill="black"/>
<path d="M6.75 13.5H18.75C18.9489 13.5 19.1397 13.421 19.2803 13.2803C19.421 13.1397 19.5 12.9489 19.5 12.75C19.5 12.5511 19.421 12.3603 19.2803 12.2197C19.1397 12.079 18.9489 12 18.75 12H6.75C6.55109 12 6.36032 12.079 6.21967 12.2197C6.07902 12.3603 6 12.5511 6 12.75C6 12.9489 6.07902 13.1397 6.21967 13.2803C6.36032 13.421 6.55109 13.5 6.75 13.5Z" fill="black"/>
<path d="M6.75 15.75H14.25C14.4489 15.75 14.6397 15.671 14.7803 15.5303C14.921 15.3897 15 15.1989 15 15C15 14.8011 14.921 14.6103 14.7803 14.4697C14.6397 14.329 14.4489 14.25 14.25 14.25H6.75C6.55109 14.25 6.36032 14.329 6.21967 14.4697C6.07902 14.6103 6 14.8011 6 15C6 15.1989 6.07902 15.3897 6.21967 15.5303C6.36032 15.671 6.55109 15.75 6.75 15.75Z" fill="black"/>
<path d="M16.5 14.25C16.3011 14.25 16.1103 14.329 15.9697 14.4697C15.829 14.6103 15.75 14.8011 15.75 15C15.75 15.1989 15.829 15.3897 15.9697 15.5303C16.1103 15.671 16.3011 15.75 16.5 15.75H17.25C17.4489 15.75 17.6397 15.671 17.7803 15.5303C17.921 15.3897 18 15.1989 18 15C18 14.8011 17.921 14.6103 17.7803 14.4697C17.6397 14.329 17.4489 14.25 17.25 14.25H16.5Z" fill="black"/>
<path d="M29.25 32.25H6.75C6.55109 32.25 6.36032 32.329 6.21967 32.4697C6.07902 32.6103 6 32.8011 6 33C6 33.1989 6.07902 33.3897 6.21967 33.5303C6.36032 33.671 6.55109 33.75 6.75 33.75H29.25C29.4489 33.75 29.6397 33.671 29.7803 33.5303C29.921 33.3897 30 33.1989 30 33C30 32.8011 29.921 32.6103 29.7803 32.4697C29.6397 32.329 29.4489 32.25 29.25 32.25Z" fill="black"/>
<path d="M29.25 34.5H6.75C6.55109 34.5 6.36032 34.579 6.21967 34.7197C6.07902 34.8603 6 35.0511 6 35.25C6 35.4489 6.07902 35.6397 6.21967 35.7803C6.36032 35.921 6.55109 36 6.75 36H29.25C29.4489 36 29.6397 35.921 29.7803 35.7803C29.921 35.6397 30 35.4489 30 35.25C30 35.0511 29.921 34.8603 29.7803 34.7197C29.6397 34.579 29.4489 34.5 29.25 34.5Z" fill="black"/>
<path d="M14.25 36.75H6.75C6.55109 36.75 6.36032 36.829 6.21967 36.9697C6.07902 37.1103 6 37.3011 6 37.5C6 37.6989 6.07902 37.8897 6.21967 38.0303C6.36032 38.171 6.55109 38.25 6.75 38.25H14.25C14.4489 38.25 14.6397 38.171 14.7803 38.0303C14.921 37.8897 15 37.6989 15 37.5C15 37.3011 14.921 37.1103 14.7803 36.9697C14.6397 36.829 14.4489 36.75 14.25 36.75Z" fill="black"/>
<path d="M17.25 36.75H16.5C16.3011 36.75 16.1103 36.829 15.9697 36.9697C15.829 37.1103 15.75 37.3011 15.75 37.5C15.75 37.6989 15.829 37.8897 15.9697 38.0303C16.1103 38.171 16.3011 38.25 16.5 38.25H17.25C17.4489 38.25 17.6397 38.171 17.7803 38.0303C17.921 37.8897 18 37.6989 18 37.5C18 37.3011 17.921 37.1103 17.7803 36.9697C17.6397 36.829 17.4489 36.75 17.25 36.75Z" fill="black"/>
<path d="M6.75 30.75H18.75C18.9489 30.75 19.1397 30.671 19.2803 30.5303C19.421 30.3897 19.5 30.1989 19.5 30V18C19.5 17.8011 19.421 17.6103 19.2803 17.4697C19.1397 17.329 18.9489 17.25 18.75 17.25H6.75C6.55109 17.25 6.36032 17.329 6.21967 17.4697C6.07902 17.6103 6 17.8011 6 18V30C6 30.1989 6.07902 30.3897 6.21967 30.5303C6.36032 30.671 6.55109 30.75 6.75 30.75ZM7.5 18.75H18V29.25H7.5V18.75Z" fill="black"/>
</svg>
