<svg width="48" height="48" viewBox="0 0 48 48" fill="none" xmlns="http://www.w3.org/2000/svg">
<g clip-path="url(#clip0_308_0)">
<path d="M47.2977 23.2969H43.6322V13.8834C43.6322 13.4951 43.3175 13.1803 42.9291 13.1803C42.5407 13.1803 42.226 13.4951 42.226 13.8834V23.2969H40.7203V1.40625H42.226V10.8197C42.226 11.208 42.5407 11.5228 42.9291 11.5228C43.3175 11.5228 43.6322 11.208 43.6322 10.8197V0.703125C43.6322 0.314812 43.3175 0 42.9291 0H40.0171C39.6287 0 39.314 0.314812 39.314 0.703125V2.91225H29.8251C29.4367 2.91225 29.122 3.22706 29.122 3.61538V5.82469H21.0891C20.4576 5.95547 20.2626 6.31978 20.5041 6.91781L23.1559 10.8956L20.5041 14.8734C20.2626 15.4715 20.4576 15.8358 21.0891 15.9666H32.7047C33.0931 15.9666 33.4078 15.6517 33.4078 15.2634V13.0548H39.314V23.2969H35.6493C35.2609 23.2969 34.9462 23.6117 34.9462 24V29.1206H31.3576C30.9692 29.1206 30.6544 29.4354 30.6544 29.8237C30.6544 30.2121 30.9692 30.5269 31.3576 30.5269H34.9462V46.5938H24.7041V30.5269H28.2929C28.6813 30.5269 28.996 30.2121 28.996 29.8237C28.996 29.4354 28.6813 29.1206 28.2929 29.1206H24.001C23.6126 29.1206 23.2979 29.4354 23.2979 29.8237V34.9452H12.3527C11.9642 34.9452 11.6495 35.26 11.6495 35.6483V40.7691H7.62475C7.23634 40.7691 6.92162 41.0839 6.92162 41.4722C6.92162 41.8605 7.23634 42.1753 7.62475 42.1753H11.6494V46.5938H1.40725V42.1753H4.56006C4.94847 42.1753 5.26319 41.8605 5.26319 41.4722C5.26319 41.0839 4.94847 40.7691 4.56006 40.7691H0.704124C0.315718 40.7691 0.000999451 41.0839 0.000999451 41.4722V47.2969C0.000999451 47.6852 0.315718 48 0.704124 48L47.2977 47.9998C47.6861 47.9998 48.0008 47.685 48.0008 47.2967V24C48.0008 23.6117 47.6861 23.2969 47.2977 23.2969ZM32.0016 14.5603H22.4029L24.586 11.2856C24.7435 11.0495 24.7435 10.7418 24.586 10.5056L22.4029 7.23094H29.122V12.3517C29.122 12.74 29.4367 13.0548 29.8251 13.0548H32.0016V14.5603ZM30.5282 11.6485V4.3185H39.3141V11.6485H30.5282ZM13.0558 36.3515H23.2979V46.5936H13.0558V36.3515ZM46.5946 46.5936H36.3526L36.3525 24.7031H46.5946V46.5936Z" fill="black"/>
</g>
<defs>
<clipPath id="clip0_308_0">
<rect width="48" height="48" fill="white"/>
</clipPath>
</defs>
</svg>
