<svg width="48" height="48" viewBox="0 0 48 48" fill="none" xmlns="http://www.w3.org/2000/svg">
<path d="M44.25 12H43.2759C44.1462 11.0293 44.7167 9.82732 44.9186 8.53934C45.1205 7.25136 44.945 5.93248 44.4135 4.74206C43.8819 3.55164 43.017 2.54063 41.9233 1.83117C40.8295 1.12171 39.5537 0.744171 38.25 0.744171C36.9463 0.744171 35.6705 1.12171 34.5767 1.83117C33.483 2.54063 32.6181 3.55164 32.0865 4.74206C31.555 5.93248 31.3795 7.25136 31.5814 8.53934C31.7833 9.82732 32.3538 11.0293 33.2241 12H24V4.5C24 4.30108 23.921 4.11032 23.7803 3.96967C23.6397 3.82901 23.4489 3.75 23.25 3.75H20.25C20.0511 3.75 19.8603 3.82901 19.7197 3.96967C19.579 4.11032 19.5 4.30108 19.5 4.5V12H18.75V1.5C18.75 1.30108 18.671 1.11032 18.5303 0.969665C18.3897 0.829013 18.1989 0.749995 18 0.749995H15C14.8011 0.749995 14.6103 0.829013 14.4697 0.969665C14.329 1.11032 14.25 1.30108 14.25 1.5V12H13.5V6.75C13.5 6.55108 13.421 6.36032 13.2803 6.21967C13.1397 6.07901 12.9489 6 12.75 6H9.75C9.55109 6 9.36032 6.07901 9.21967 6.21967C9.07902 6.36032 9 6.55108 9 6.75V12H3.75C2.95462 12.0009 2.19208 12.3172 1.62967 12.8797C1.06725 13.4421 0.750893 14.2046 0.75 15V37.5C0.750893 38.2954 1.06725 39.0579 1.62967 39.6203C2.19208 40.1827 2.95462 40.4991 3.75 40.5H19.2094L18.2091 43.5H15.75C15.5511 43.5 15.3603 43.579 15.2197 43.7197C15.079 43.8603 15 44.0511 15 44.25V45.75H7.5C7.30109 45.75 7.11032 45.829 6.96967 45.9697C6.82902 46.1103 6.75 46.3011 6.75 46.5C6.75 46.6989 6.82902 46.8897 6.96967 47.0303C7.11032 47.171 7.30109 47.25 7.5 47.25H40.5C40.6989 47.25 40.8897 47.171 41.0303 47.0303C41.171 46.8897 41.25 46.6989 41.25 46.5C41.25 46.3011 41.171 46.1103 41.0303 45.9697C40.8897 45.829 40.6989 45.75 40.5 45.75H33V44.25C33 44.0511 32.921 43.8603 32.7803 43.7197C32.6397 43.579 32.4489 43.5 32.25 43.5H29.7909L28.7906 40.5H44.25C45.0454 40.4991 45.8079 40.1827 46.3703 39.6203C46.9327 39.0579 47.2491 38.2954 47.25 37.5V15C47.2491 14.2046 46.9327 13.4421 46.3703 12.8797C45.8079 12.3172 45.0454 12.0009 44.25 12ZM39 2.30437C40.1209 2.46794 41.1591 2.98896 41.96 3.78995C42.761 4.59094 43.2821 5.6291 43.4456 6.75H39V2.30437ZM38.5603 8.25H43.4456C43.3161 9.15121 42.9542 10.0032 42.3957 10.7222C41.8371 11.4412 41.101 12.0025 40.2598 12.3508C39.4186 12.6992 38.5012 12.8226 37.5979 12.709C36.6945 12.5954 35.8363 12.2486 35.1075 11.7028L38.5603 8.25ZM33 7.5C33.0018 6.23811 33.4574 5.01895 34.2835 4.06509C35.1097 3.11123 36.2513 2.4863 37.5 2.30437V7.18968L34.0472 10.6425C33.3664 9.73637 32.9988 8.63337 33 7.5ZM21 5.25H22.5V19.5H21V5.25ZM18.75 13.5H19.5V19.5H18.75V13.5ZM15.75 2.25H17.25V19.5H15.75V2.25ZM13.5 13.5H14.25V19.5H13.5V13.5ZM10.5 7.5H12V19.5H10.5V7.5ZM31.5 45V45.75H16.5V45H31.5ZM19.7906 43.5L20.7909 40.5H27.2091L28.2094 43.5H19.7906ZM45.75 37.5C45.7495 37.8977 45.5913 38.2789 45.3101 38.5601C45.0289 38.8413 44.6477 38.9995 44.25 39H3.75C3.35234 38.9995 2.97111 38.8413 2.68992 38.5601C2.40872 38.2789 2.25052 37.8977 2.25 37.5V36H45.75V37.5ZM45.75 34.5H2.25V15C2.25052 14.6023 2.40872 14.2211 2.68992 13.9399C2.97111 13.6587 3.35234 13.5005 3.75 13.5H9V19.5H8.25V15C8.25 14.8011 8.17098 14.6103 8.03033 14.4697C7.88968 14.329 7.69891 14.25 7.5 14.25H4.5C4.30109 14.25 4.11032 14.329 3.96967 14.4697C3.82902 14.6103 3.75 14.8011 3.75 15V20.25C3.75 20.4489 3.82902 20.6397 3.96967 20.7803C4.11032 20.921 4.30109 21 4.5 21H28.5C28.6989 21 28.8897 20.921 29.0303 20.7803C29.171 20.6397 29.25 20.4489 29.25 20.25V15C29.25 14.8011 29.171 14.6103 29.0303 14.4697C28.8897 14.329 28.6989 14.25 28.5 14.25H25.5C25.3011 14.25 25.1103 14.329 24.9697 14.4697C24.829 14.6103 24.75 14.8011 24.75 15V19.5H24V13.5H35.1637C36.1179 13.9928 37.1761 14.25 38.25 14.25C39.3239 14.25 40.3821 13.9928 41.3363 13.5H44.25C44.6477 13.5005 45.0289 13.6587 45.3101 13.9399C45.5913 14.2211 45.7495 14.6023 45.75 15V34.5ZM6.75 15.75V19.5H5.25V15.75H6.75ZM26.25 19.5V15.75H27.75V19.5H26.25Z" fill="black"/>
<path d="M9 36.75H4.5C4.30109 36.75 4.11032 36.829 3.96967 36.9697C3.82902 37.1103 3.75 37.3011 3.75 37.5C3.75 37.6989 3.82902 37.8897 3.96967 38.0303C4.11032 38.171 4.30109 38.25 4.5 38.25H9C9.19891 38.25 9.38968 38.171 9.53033 38.0303C9.67098 37.8897 9.75 37.6989 9.75 37.5C9.75 37.3011 9.67098 37.1103 9.53033 36.9697C9.38968 36.829 9.19891 36.75 9 36.75Z" fill="black"/>
<path d="M12 36.75H11.25C11.0511 36.75 10.8603 36.829 10.7197 36.9697C10.579 37.1103 10.5 37.3011 10.5 37.5C10.5 37.6989 10.579 37.8897 10.7197 38.0303C10.8603 38.171 11.0511 38.25 11.25 38.25H12C12.1989 38.25 12.3897 38.171 12.5303 38.0303C12.671 37.8897 12.75 37.6989 12.75 37.5C12.75 37.3011 12.671 37.1103 12.5303 36.9697C12.3897 36.829 12.1989 36.75 12 36.75Z" fill="black"/>
<path d="M32.25 19.5C32.3485 19.5001 32.4461 19.4808 32.5371 19.4431C32.6281 19.4054 32.7108 19.3501 32.7803 19.2803L35.5606 16.5H42C42.1989 16.5 42.3897 16.421 42.5303 16.2803C42.671 16.1397 42.75 15.9489 42.75 15.75C42.75 15.5511 42.671 15.3603 42.5303 15.2197C42.3897 15.079 42.1989 15 42 15H35.25C35.1515 15 35.054 15.0194 34.963 15.0571C34.872 15.0948 34.7893 15.15 34.7196 15.2196L31.7197 18.2196C31.6148 18.3245 31.5433 18.4582 31.5144 18.6037C31.4854 18.7491 31.5003 18.9 31.5571 19.037C31.6138 19.174 31.71 19.2912 31.8333 19.3736C31.9566 19.456 32.1017 19.5 32.25 19.5V19.5Z" fill="black"/>
<path d="M42 27.75C41.6059 27.7503 41.2187 27.8541 40.8773 28.051C40.5359 28.248 40.2522 28.5311 40.0547 28.8722L32.2031 24.2916C32.0968 23.7805 31.816 23.3222 31.4089 22.9954C31.0018 22.6686 30.4937 22.4935 29.9717 22.5002C29.4497 22.5068 28.9462 22.6948 28.5476 23.0319C28.1489 23.369 27.8799 23.8342 27.7866 24.3478L19.8853 30.2738C19.6704 29.9427 19.3721 29.6741 19.0204 29.495C18.6687 29.3158 18.2761 29.2324 17.8819 29.2531C17.4878 29.2738 17.106 29.3979 16.7751 29.613C16.4441 29.828 16.1756 30.1264 15.9966 30.4781L8.18718 27.2241C8.06397 26.7103 7.76395 26.2562 7.33968 25.9414C6.9154 25.6266 6.39389 25.471 5.86646 25.502C5.33903 25.5329 4.8393 25.7484 4.45476 26.1107C4.07021 26.473 3.82536 26.959 3.76308 27.4837C3.70079 28.0083 3.82504 28.5382 4.11407 28.9804C4.4031 29.4227 4.83849 29.7492 5.34401 29.9028C5.84954 30.0563 6.39297 30.0272 6.87917 29.8205C7.36537 29.6137 7.76335 29.2425 8.00343 28.7719L15.8128 32.0259C15.9334 32.5277 16.2228 32.9728 16.6326 33.2865C17.0423 33.6002 17.5475 33.7635 18.0633 33.749C18.5792 33.7345 19.0744 33.5431 19.4658 33.2068C19.8573 32.8706 20.1213 32.41 20.2134 31.9022L28.1147 25.9762C28.324 26.2987 28.6125 26.5621 28.9527 26.7412C29.2928 26.9203 29.6732 27.0092 30.0576 26.9993C30.4419 26.9894 30.8172 26.8811 31.1477 26.6848C31.4782 26.4884 31.7528 26.2106 31.9453 25.8778L39.7969 30.4584C39.8835 30.8749 40.0865 31.2582 40.3821 31.564C40.6778 31.8698 41.0541 32.0855 41.4674 32.1861C41.8806 32.2868 42.314 32.2682 42.7171 32.1326C43.1203 31.9969 43.4767 31.7498 43.7451 31.4198C44.0135 31.0898 44.1829 30.6905 44.2336 30.2682C44.2843 29.8459 44.2143 29.4179 44.0316 29.0337C43.849 28.6496 43.5611 28.3251 43.2016 28.0979C42.842 27.8707 42.4253 27.7501 42 27.75ZM6.75 27.7538C6.7495 27.953 6.66994 28.1439 6.52878 28.2845C6.38763 28.4252 6.19643 28.504 5.99719 28.5038C5.79794 28.5035 5.60694 28.4242 5.46614 28.2832C5.32534 28.1422 5.24625 27.9511 5.24625 27.7519C5.24625 27.5526 5.32534 27.3615 5.46614 27.2206C5.60694 27.0796 5.79794 27.0002 5.99719 27C6.19643 26.9998 6.38763 27.0786 6.52878 27.2192C6.66994 27.3599 6.7495 27.5508 6.75 27.75V27.7538ZM18 32.25C17.8012 32.2497 17.6106 32.1706 17.47 32.03C17.3294 31.8894 17.2503 31.6988 17.25 31.5V31.4963C17.2507 31.3481 17.2954 31.2034 17.3782 31.0806C17.4611 30.9578 17.5785 30.8622 17.7156 30.806C17.8527 30.7498 18.0034 30.7355 18.1486 30.7649C18.2938 30.7942 18.4271 30.866 18.5316 30.971C18.6362 31.076 18.7072 31.2097 18.7358 31.3551C18.7645 31.5004 18.7494 31.6511 18.6925 31.7879C18.6357 31.9247 18.5395 32.0416 18.4163 32.1239C18.293 32.2061 18.1482 32.25 18 32.25ZM30 25.5C29.8517 25.5 29.7067 25.456 29.5833 25.3736C29.46 25.2912 29.3639 25.1741 29.3071 25.037C29.2503 24.9 29.2355 24.7492 29.2644 24.6037C29.2933 24.4582 29.3648 24.3246 29.4697 24.2197C29.5746 24.1148 29.7082 24.0433 29.8537 24.0144C29.9992 23.9855 30.15 24.0003 30.287 24.0571C30.4241 24.1139 30.5412 24.21 30.6236 24.3333C30.706 24.4567 30.75 24.6017 30.75 24.75C30.7497 24.9488 30.6706 25.1394 30.53 25.28C30.3894 25.4206 30.1988 25.4997 30 25.5V25.5ZM42 30.75C41.8517 30.75 41.7067 30.706 41.5833 30.6236C41.46 30.5412 41.3639 30.4241 41.3071 30.287C41.2503 30.15 41.2355 29.9992 41.2644 29.8537C41.2933 29.7082 41.3648 29.5746 41.4697 29.4697C41.5746 29.3648 41.7082 29.2934 41.8537 29.2644C41.9992 29.2355 42.15 29.2503 42.287 29.3071C42.4241 29.3639 42.5412 29.46 42.6236 29.5833C42.706 29.7067 42.75 29.8517 42.75 30C42.7497 30.1988 42.6706 30.3894 42.53 30.53C42.3894 30.6706 42.1988 30.7497 42 30.75V30.75Z" fill="black"/>
<path d="M36 32.25H30.75C30.5511 32.25 30.3603 32.329 30.2197 32.4697C30.079 32.6103 30 32.8011 30 33C30 33.1989 30.079 33.3897 30.2197 33.5303C30.3603 33.671 30.5511 33.75 30.75 33.75H36C36.1989 33.75 36.3897 33.671 36.5303 33.5303C36.671 33.3897 36.75 33.1989 36.75 33C36.75 32.8011 36.671 32.6103 36.5303 32.4697C36.3897 32.329 36.1989 32.25 36 32.25Z" fill="black"/>
<path d="M36 30H33.75C33.5511 30 33.3603 30.079 33.2197 30.2197C33.079 30.3603 33 30.5511 33 30.75C33 30.9489 33.079 31.1397 33.2197 31.2803C33.3603 31.421 33.5511 31.5 33.75 31.5H36C36.1989 31.5 36.3897 31.421 36.5303 31.2803C36.671 31.1397 36.75 30.9489 36.75 30.75C36.75 30.5511 36.671 30.3603 36.5303 30.2197C36.3897 30.079 36.1989 30 36 30Z" fill="black"/>
<path d="M4.5 23.25H12.75C12.9489 23.25 13.1397 23.171 13.2803 23.0303C13.421 22.8897 13.5 22.6989 13.5 22.5C13.5 22.3011 13.421 22.1103 13.2803 21.9697C13.1397 21.829 12.9489 21.75 12.75 21.75H4.5C4.30109 21.75 4.11032 21.829 3.96967 21.9697C3.82902 22.1103 3.75 22.3011 3.75 22.5C3.75 22.6989 3.82902 22.8897 3.96967 23.0303C4.11032 23.171 4.30109 23.25 4.5 23.25Z" fill="black"/>
<path d="M15 23.25H15.75C15.9489 23.25 16.1397 23.171 16.2803 23.0303C16.421 22.8897 16.5 22.6989 16.5 22.5C16.5 22.3011 16.421 22.1103 16.2803 21.9697C16.1397 21.829 15.9489 21.75 15.75 21.75H15C14.8011 21.75 14.6103 21.829 14.4697 21.9697C14.329 22.1103 14.25 22.3011 14.25 22.5C14.25 22.6989 14.329 22.8897 14.4697 23.0303C14.6103 23.171 14.8011 23.25 15 23.25Z" fill="black"/>
</svg>
