<svg width="48" height="48" viewBox="0 0 48 48" fill="none" xmlns="http://www.w3.org/2000/svg">
<path d="M45.8115 1.21875H14.4166C13.21 1.21875 12.2281 2.20056 12.2281 3.40723V11.6243C12.2281 12.8309 13.21 13.8127 14.4166 13.8127H45.8115C47.0182 13.8127 48 12.8309 48 11.6243V3.40723C48 2.20056 47.0182 1.21875 45.8115 1.21875ZM46.5729 11.6243C46.5729 12.0439 46.2316 12.3856 45.8115 12.3856H14.4166C13.9969 12.3856 13.6553 12.0439 13.6553 11.6243V3.40723C13.6553 2.98755 13.9969 2.64587 14.4166 2.64587H45.8115C46.2316 2.64587 46.5729 2.98755 46.5729 3.40723V11.6243Z" fill="black"/>
<path d="M5.5426 18.4321C2.48657 18.4321 0 20.9183 0 23.9747C0 27.0308 2.48657 29.5173 5.5426 29.5173C8.599 29.5173 11.0852 27.0308 11.0852 23.9747C11.0852 20.9183 8.599 18.4321 5.5426 18.4321ZM5.5426 28.0902C3.27319 28.0902 1.42712 26.2438 1.42712 23.9747C1.42712 21.7053 3.27319 19.8589 5.5426 19.8589C7.81201 19.8589 9.65808 21.7053 9.65808 23.9747C9.65808 26.2438 7.81201 28.0902 5.5426 28.0902Z" fill="black"/>
<path d="M45.8115 17.6777H14.4166C13.21 17.6777 12.2281 18.6592 12.2281 19.8658V28.0833C12.2281 29.2899 13.21 30.2714 14.4166 30.2714H45.8115C47.0182 30.2714 48 29.2899 48 28.0833V19.8658C48 18.6592 47.0182 17.6777 45.8115 17.6777ZM46.5729 28.0833C46.5729 28.5029 46.2316 28.8442 45.8115 28.8442H14.4166C13.9969 28.8442 13.6553 28.5029 13.6553 28.0833V19.8658C13.6553 19.4462 13.9969 19.1045 14.4166 19.1045H45.8115C46.2316 19.1045 46.5729 19.4462 46.5729 19.8658V28.0833Z" fill="black"/>
<path d="M5.5426 34.8907C2.48657 34.8907 0 37.3773 0 40.4333C0 43.4897 2.48657 45.976 5.5426 45.976C8.599 45.976 11.0852 43.4897 11.0852 40.4333C11.0852 37.3773 8.599 34.8907 5.5426 34.8907ZM5.5426 44.5488C3.27319 44.5488 1.42712 42.7028 1.42712 40.4333C1.42712 38.1639 3.27319 36.3179 5.5426 36.3179C7.81201 36.3179 9.65808 38.1639 9.65808 40.4333C9.65808 42.7028 7.81201 44.5488 5.5426 44.5488Z" fill="black"/>
<path d="M45.8115 34.1364H14.4166C13.21 34.1364 12.2281 35.1182 12.2281 36.3248V44.5419C12.2281 45.7485 13.21 46.7303 14.4166 46.7303H45.8115C47.0182 46.7303 48 45.7485 48 44.5419V36.3248C48 35.1182 47.0182 34.1364 45.8115 34.1364ZM46.5729 44.5419C46.5729 44.9615 46.2316 45.3032 45.8115 45.3032H14.4166C13.9969 45.3032 13.6553 44.9615 13.6553 44.5419V36.3248C13.6553 35.9052 13.9969 35.5635 14.4166 35.5635H45.8115C46.2316 35.5635 46.5729 35.9052 46.5729 36.3248V44.5419Z" fill="black"/>
<path d="M43.6714 4.70911H24.6438C24.2494 4.70911 23.9301 5.02881 23.9301 5.42285C23.9301 5.81689 24.2494 6.13623 24.6438 6.13623H43.6714C44.0654 6.13623 44.3848 5.81689 44.3848 5.42285C44.3848 5.02881 44.0654 4.70911 43.6714 4.70911Z" fill="black"/>
<path d="M16.5568 6.13623H21.7896C22.1836 6.13623 22.5029 5.81689 22.5029 5.42285C22.5029 5.02881 22.1836 4.70911 21.7896 4.70911H16.5568C16.1627 4.70911 15.8434 5.02881 15.8434 5.42285C15.8434 5.81689 16.1627 6.13623 16.5568 6.13623Z" fill="black"/>
<path d="M38.4664 8.89526H16.5568C16.1627 8.89526 15.8434 9.2146 15.8434 9.60864C15.8434 10.0027 16.1627 10.3224 16.5568 10.3224H38.4664C38.8605 10.3224 39.1798 10.0027 39.1798 9.60864C39.1798 9.2146 38.8605 8.89526 38.4664 8.89526Z" fill="black"/>
<path d="M34.6333 21.1681H16.5568C16.1627 21.1681 15.8434 21.4874 15.8434 21.8815C15.8434 22.2755 16.1627 22.5952 16.5568 22.5952H34.6333C35.0273 22.5952 35.3467 22.2755 35.3467 21.8815C35.3467 21.4874 35.0273 21.1681 34.6333 21.1681Z" fill="black"/>
<path d="M43.6714 21.1681H37.4872C37.0931 21.1681 36.7738 21.4874 36.7738 21.8815C36.7738 22.2755 37.0931 22.5952 37.4872 22.5952H43.6714C44.0654 22.5952 44.3848 22.2755 44.3848 21.8815C44.3848 21.4874 44.0654 21.1681 43.6714 21.1681Z" fill="black"/>
<path d="M22.0558 25.3542H16.5568C16.1627 25.3542 15.8434 25.6736 15.8434 26.0676C15.8434 26.4617 16.1627 26.781 16.5568 26.781H22.0558C22.4498 26.781 22.7692 26.4617 22.7692 26.0676C22.7692 25.6736 22.4498 25.3542 22.0558 25.3542Z" fill="black"/>
<path d="M43.6714 37.6267H16.5568C16.1627 37.6267 15.8434 37.9464 15.8434 38.3405C15.8434 38.7345 16.1627 39.0538 16.5568 39.0538H43.6714C44.0654 39.0538 44.3848 38.7345 44.3848 38.3405C44.3848 37.9464 44.0654 37.6267 43.6714 37.6267Z" fill="black"/>
<path d="M31.7593 41.8129H28.9248C28.5308 41.8129 28.2114 42.1326 28.2114 42.5266C28.2114 42.9207 28.5308 43.24 28.9248 43.24H31.7593C32.1537 43.24 32.473 42.9207 32.473 42.5266C32.473 42.1326 32.1537 41.8129 31.7593 41.8129Z" fill="black"/>
<path d="M26.0706 41.8129H16.5568C16.1627 41.8129 15.8434 42.1326 15.8434 42.5266C15.8434 42.9207 16.1627 43.24 16.5568 43.24H26.0706C26.465 43.24 26.7843 42.9207 26.7843 42.5266C26.7843 42.1326 26.465 41.8129 26.0706 41.8129Z" fill="black"/>
<path d="M10.8263 1.34619C10.5022 1.12134 10.058 1.2019 9.83313 1.52527L8.78979 3.0282C7.87646 2.36535 6.75476 1.97314 5.5426 1.97314C2.48657 1.97314 0 4.45935 0 7.51575C0 10.5718 2.48657 13.0583 5.5426 13.0583C8.599 13.0583 11.0852 10.5718 11.0852 7.51575C11.0852 6.19079 10.6176 4.97351 9.83936 4.01916L11.0054 2.33935C11.2302 2.01562 11.15 1.57104 10.8263 1.34619ZM5.5426 11.6312C3.27319 11.6312 1.42712 9.78515 1.42712 7.51575C1.42712 5.24634 3.27319 3.40027 5.5426 3.40027C6.45264 3.40027 7.29419 3.69763 7.97644 4.1997L4.96655 8.53564L3.36548 7.08948C3.07324 6.82544 2.62207 6.84814 2.35767 7.14074C2.09363 7.43335 2.11633 7.88452 2.40894 8.14856L4.61169 10.1382C4.93103 10.4268 5.43091 10.3689 5.6759 10.0155L8.98022 5.25659C9.40796 5.90552 9.65808 6.68188 9.65808 7.51575C9.65808 9.78515 7.81201 11.6312 5.5426 11.6312Z" fill="black"/>
</svg>
