<svg width="19" height="20" viewBox="0 0 19 20" fill="none" xmlns="http://www.w3.org/2000/svg">
<g clip-path="url(#clip0_1601_8)">
<path d="M19.2517 8.82553L9.99466 18.0834L0.737657 8.82553C0.56496 8.65871 0.289714 8.66352 0.122887 8.83621C-0.0398231 9.00471 -0.0398231 9.27181 0.122887 9.44026L9.6877 19.0051C9.85747 19.1748 10.1327 19.1748 10.3025 19.0051L19.8673 9.44026C20.0341 9.26757 20.0293 8.99232 19.8566 8.82549C19.6881 8.66274 19.421 8.66274 19.2525 8.82549L19.2517 8.82553Z" fill="#607D8B"/>
<path d="M19.2517 0.999777L9.99466 10.2576L0.737657 0.999777C0.56496 0.83295 0.289714 0.837759 0.122887 1.01046C-0.0398231 1.17895 -0.0398231 1.44605 0.122887 1.61455L9.6877 11.1794C9.85747 11.3491 10.1327 11.3491 10.3025 11.1794L19.8673 1.61455C20.04 1.44772 20.0448 1.17251 19.878 0.999777C19.7111 0.82708 19.4359 0.822312 19.2632 0.989098C19.2596 0.992603 19.256 0.996149 19.2525 0.999777H19.2517Z" fill="#607D8B"/>
<path d="M9.99466 19.1329C9.87927 19.1332 9.76853 19.0875 9.68684 19.006L0.122033 9.44116C-0.0447942 9.26847 -0.0399846 8.99322 0.132712 8.8264C0.30121 8.66368 0.568304 8.66368 0.736761 8.8264L9.99462 18.0834L19.2516 8.82554C19.4243 8.65871 19.6996 8.66352 19.8664 8.83622C20.0291 9.00472 20.0291 9.27181 19.8664 9.44031L10.3016 19.0051C10.2203 19.0867 10.1099 19.1327 9.99466 19.1329Z" fill="black"/>
<path d="M9.99466 11.3072C9.87927 11.3074 9.76853 11.2617 9.68685 11.1802L0.122033 1.6154C-0.0447942 1.44271 -0.0399847 1.16746 0.132712 1.00063C0.30121 0.837922 0.568304 0.837922 0.736802 1.00063L9.99466 10.2576L19.2517 0.999777C19.4185 0.82708 19.6937 0.822312 19.8664 0.989098C20.0392 1.15588 20.0439 1.43113 19.8771 1.60387C19.8736 1.60749 19.8701 1.61104 19.8664 1.61455L10.3016 11.1794C10.2203 11.2609 10.1099 11.3069 9.99466 11.3072Z" fill="black"/>
</g>
<defs>
<clipPath id="clip0_1601_8">
<rect width="20" height="20" fill="white"/>
</clipPath>
</defs>
</svg>
