<svg width="48" height="48" viewBox="0 0 48 48" fill="none" xmlns="http://www.w3.org/2000/svg">
<g clip-path="url(#clip0_308_66)">
<path d="M45.7332 36.2588L38.5312 16.5533V5.02514C38.5312 4.50745 38.1115 4.08764 37.5937 4.08764L33.9752 4.08745L32.7061 0.615595C32.5284 0.129219 31.9902 -0.120625 31.5038 0.0568439L20.4773 4.08689H20.2304C20.2449 3.65995 20.0909 3.22832 19.7658 2.9031L18.3567 1.49394C18.6069 1.12888 18.5705 0.626283 18.2462 0.302001C17.8801 -0.0641877 17.2866 -0.0640939 16.9203 0.302001L13.1348 4.08754H7.06014C6.54235 4.08754 6.12263 4.50726 6.12263 5.02504V9.33324L2.82553 10.5384C2.592 10.6238 2.40188 10.7984 2.29716 11.0239C2.19235 11.2494 2.18147 11.5073 2.26678 11.7407L6.12254 22.2905V42.9745C6.12254 43.4923 6.54226 43.912 7.06004 43.912H14.0248L15.2938 47.384C15.4328 47.7642 15.7919 48 16.1744 48C16.2813 48 16.39 47.9815 16.4962 47.9428L27.5248 43.912H37.5936C38.1113 43.912 38.5311 43.4923 38.5311 42.9745V39.8893L45.1744 37.4612C45.4079 37.3758 45.598 37.2013 45.7027 36.9758C45.8076 36.7502 45.8185 36.4923 45.7332 36.2588ZM6.12263 16.8284L4.34972 11.9776L6.12263 11.3297V16.8284ZM31.2668 2.13979L31.9787 4.08745L25.9388 4.08717L31.2668 2.13979ZM14.1219 5.75264L17.0428 2.83185L18.2607 4.04976C18.0574 4.34048 17.9547 4.69373 17.9743 5.0527C17.9748 5.06189 17.9767 5.07089 17.9773 5.08008C17.9779 5.08973 17.9775 5.09939 17.9785 5.10914C17.9803 5.12901 17.9844 5.14842 17.9869 5.16811C17.9902 5.19389 17.9934 5.21967 17.9979 5.24526C18.0027 5.27208 18.0089 5.29851 18.0151 5.32505C18.0216 5.3528 18.0278 5.38055 18.0357 5.40783C18.0422 5.43042 18.0501 5.45236 18.0577 5.47458C18.0679 5.50476 18.0778 5.53486 18.0898 5.56439C18.0973 5.58286 18.1062 5.60058 18.1143 5.61876C18.1286 5.65045 18.1427 5.68214 18.1589 5.71289C18.1674 5.72873 18.177 5.74383 18.186 5.75939C18.204 5.7907 18.2218 5.82211 18.2419 5.8522C18.2525 5.86805 18.2645 5.88295 18.2757 5.89842C18.296 5.92664 18.3159 5.95505 18.338 5.98195C18.3546 6.00211 18.3731 6.02077 18.3907 6.04008C18.4094 6.0607 18.4273 6.08208 18.4471 6.10167C18.4856 6.13973 18.526 6.17583 18.5683 6.20995C18.5687 6.21033 18.5692 6.21089 18.5698 6.21127L20.2691 7.57421L18.134 9.70937L16.7712 8.01005C16.672 7.8864 16.555 7.78055 16.4264 7.69271C16.4172 7.68633 16.4086 7.67902 16.3992 7.67283C16.3917 7.66796 16.3837 7.66411 16.3761 7.65943C16.1485 7.51608 15.8863 7.42974 15.6126 7.41474C15.5835 7.41314 15.5546 7.41239 15.5256 7.41239C15.5172 7.41239 15.509 7.41324 15.5007 7.41333C15.4816 7.41361 15.4627 7.41455 15.4437 7.41549C15.4198 7.41671 15.396 7.4183 15.3723 7.42064C15.3534 7.42252 15.3345 7.42468 15.3157 7.42721C15.2921 7.43039 15.2685 7.43405 15.2451 7.43827C15.2266 7.44155 15.2082 7.44502 15.1899 7.44905C15.1662 7.45411 15.1429 7.45993 15.1197 7.46611C15.1019 7.4708 15.0842 7.47539 15.0666 7.48064C15.043 7.48777 15.0196 7.49574 14.9964 7.50399C14.9796 7.50989 14.9628 7.51552 14.9463 7.52189C14.9223 7.53127 14.8989 7.54168 14.8753 7.55218C14.8601 7.55902 14.8447 7.5653 14.8297 7.57261C14.8041 7.58499 14.7792 7.59868 14.7543 7.61236C14.742 7.61911 14.7295 7.62521 14.7174 7.63233C14.6807 7.6538 14.6448 7.67658 14.6098 7.70105L13.3916 6.48286L14.1219 5.75264ZM16.7331 45.8598L16.0212 43.912H22.0626L16.7331 45.8598ZM7.99764 42.0369V5.96264H11.26L10.8622 6.36042C10.4961 6.72652 10.4961 7.32014 10.8622 7.68624C11.0453 7.86933 11.2852 7.96083 11.5251 7.96083C11.7102 7.96083 11.8951 7.90571 12.0541 7.79668L13.4633 9.20602C13.7273 9.47002 14.0673 9.63015 14.4341 9.66606C14.4865 9.67121 14.5393 9.67374 14.5927 9.67374C14.633 9.67374 14.673 9.67224 14.7128 9.66934C14.9229 9.65377 15.1244 9.59687 15.3091 9.50387C15.3692 9.47359 15.428 9.44021 15.4842 9.40224L16.8655 11.1244C17.0427 11.3454 17.2741 11.513 17.5332 11.6138C17.6887 11.6743 17.8542 11.7106 18.0239 11.7198C18.0531 11.7214 18.0821 11.7222 18.111 11.7222C18.1254 11.7222 18.1395 11.7205 18.1539 11.72C18.1793 11.7194 18.2046 11.7182 18.2298 11.7163C18.2586 11.7141 18.2872 11.711 18.3158 11.7073C18.3411 11.704 18.3662 11.7005 18.3913 11.696C18.4196 11.691 18.4476 11.6847 18.4755 11.6781C18.5 11.6724 18.5245 11.6667 18.5486 11.6597C18.5767 11.6517 18.6043 11.6423 18.632 11.6327C18.6552 11.6248 18.6784 11.6171 18.7011 11.608C18.7292 11.5968 18.7566 11.584 18.7841 11.5712C18.8053 11.5613 18.8269 11.552 18.8477 11.5412C18.8761 11.5265 18.9034 11.5098 18.931 11.4934C18.9498 11.4822 18.969 11.4718 18.9874 11.4597C19.0174 11.44 19.046 11.4182 19.0747 11.3965C19.0892 11.3854 19.1045 11.3755 19.1188 11.364C19.161 11.3297 19.2018 11.2933 19.2406 11.2544L19.8646 10.6304L21.1073 11.873C21.2904 12.0561 21.5303 12.1476 21.7702 12.1476C22.0101 12.1476 22.2501 12.056 22.4331 11.873C22.7992 11.5069 22.7992 10.9133 22.4331 10.5472L21.1904 9.30465L21.8144 8.68074C22.1349 8.36021 22.3045 7.91677 22.2797 7.46414C22.2549 7.01152 22.0379 6.58917 21.6842 6.30558L21.2566 5.96264H36.6561V42.0369H7.99764ZM38.5311 37.8928V22.0155L43.6502 36.022L38.5311 37.8928Z" fill="black"/>
<path d="M34.7249 16.9678C34.7127 16.9078 34.695 16.8488 34.6715 16.7916C34.6481 16.7353 34.6189 16.681 34.5853 16.6303C34.5506 16.5788 34.5122 16.531 34.4681 16.4878C34.425 16.4447 34.3771 16.4053 34.3255 16.3716C34.2749 16.3378 34.2205 16.3088 34.1643 16.2853C34.1071 16.2619 34.0489 16.2431 33.9889 16.2319C33.868 16.2075 33.7433 16.2075 33.6224 16.2319C33.5624 16.2431 33.5033 16.2619 33.4471 16.2853C33.3908 16.3088 33.3356 16.3378 33.285 16.3716C33.2334 16.4053 33.1855 16.4447 33.1424 16.4878C33.0993 16.531 33.0599 16.5788 33.0262 16.6303C32.9925 16.681 32.9633 16.7353 32.9399 16.7916C32.9164 16.8488 32.8987 16.9078 32.8865 16.9678C32.8743 17.0278 32.8678 17.0897 32.8678 17.1506C32.8678 17.3972 32.9681 17.6391 33.1425 17.8135C33.1855 17.8566 33.2334 17.8959 33.2849 17.9297C33.3355 17.9635 33.3908 17.9925 33.447 18.016C33.5033 18.0394 33.5623 18.0572 33.6223 18.0694C33.6824 18.0816 33.7442 18.0881 33.8051 18.0881C33.867 18.0881 33.9279 18.0816 33.9888 18.0694C34.0488 18.0572 34.107 18.0394 34.1642 18.016C34.2204 17.9925 34.2748 17.9635 34.3254 17.9297C34.377 17.896 34.4249 17.8566 34.468 17.8135C34.6433 17.6391 34.7427 17.3972 34.7427 17.1506C34.7427 17.0897 34.7371 17.0278 34.7249 16.9678Z" fill="black"/>
<path d="M30.4035 16.2132H22.8136C22.2959 16.2132 21.8761 16.6329 21.8761 17.1507C21.8761 17.6684 22.2959 18.0882 22.8136 18.0882H30.4035C30.9212 18.0882 31.341 17.6684 31.341 17.1507C31.341 16.6329 30.9212 16.2132 30.4035 16.2132Z" fill="black"/>
<path d="M33.8056 20.0656H22.8136C22.2959 20.0656 21.8761 20.4853 21.8761 21.0031C21.8761 21.5208 22.2959 21.9406 22.8136 21.9406H33.8056C34.3233 21.9406 34.7431 21.5208 34.7431 21.0031C34.7431 20.4853 34.3233 20.0656 33.8056 20.0656Z" fill="black"/>
<path d="M14.9691 14.0184C12.1798 14.0184 9.91061 16.2876 9.91061 19.0769C9.91061 21.8662 12.1798 24.1354 14.9691 24.1354C17.7583 24.1354 20.0275 21.8661 20.0275 19.0769C20.0276 16.2876 17.7583 14.0184 14.9691 14.0184ZM14.9691 22.2604C13.2137 22.2604 11.7855 20.8323 11.7855 19.0768C11.7855 17.3213 13.2136 15.8932 14.9691 15.8932C16.7246 15.8932 18.1526 17.3213 18.1526 19.0768C18.1526 20.8323 16.7245 22.2604 14.9691 22.2604Z" fill="black"/>
<path d="M17.0416 17.6016C16.6755 17.2355 16.0819 17.2356 15.7158 17.6017L14.5322 18.7853L13.9143 18.5327C13.4351 18.337 12.8877 18.5665 12.6917 19.0457C12.4958 19.525 12.7255 20.0724 13.2047 20.2683L14.3996 20.7568C14.5144 20.8036 14.6348 20.8265 14.7541 20.8265C14.9982 20.8265 15.238 20.7312 15.4172 20.5518L17.0416 18.9274C17.4077 18.5613 17.4077 17.9677 17.0416 17.6016Z" fill="black"/>
<path d="M34.7249 29.4618C34.7127 29.4028 34.695 29.3437 34.6715 29.2865C34.6481 29.2303 34.6189 29.1759 34.5853 29.1253C34.5506 29.0737 34.5122 29.0259 34.4681 28.9828C34.425 28.9396 34.3771 28.9003 34.3255 28.8656C34.2749 28.8318 34.2205 28.8028 34.1643 28.7793C34.1071 28.7559 34.0489 28.7381 33.9889 28.7259C33.868 28.7015 33.7433 28.7015 33.6224 28.7259C33.5624 28.7381 33.5033 28.7559 33.4471 28.7793C33.3908 28.8028 33.3356 28.8318 33.285 28.8656C33.2334 28.9003 33.1855 28.9396 33.1424 28.9828C33.0993 29.0259 33.0599 29.0737 33.0262 29.1253C32.9925 29.1759 32.9633 29.2303 32.9399 29.2865C32.9164 29.3437 32.8987 29.4028 32.8865 29.4618C32.8743 29.5228 32.8678 29.5846 32.8678 29.6456C32.8678 29.7065 32.8743 29.7684 32.8865 29.8284C32.8987 29.8884 32.9164 29.9475 32.9399 30.0037C32.9633 30.0609 32.9924 30.1153 33.0262 30.1659C33.0599 30.2175 33.0993 30.2653 33.1424 30.3084C33.1855 30.3515 33.2334 30.3909 33.285 30.4246C33.3356 30.4584 33.3909 30.4875 33.4471 30.5109C33.5034 30.5343 33.5624 30.5521 33.6224 30.5643C33.6825 30.5765 33.7443 30.5831 33.8052 30.5831C33.8671 30.5831 33.928 30.5765 33.9889 30.5643C34.0489 30.5521 34.1071 30.5343 34.1643 30.5109C34.2205 30.4875 34.2749 30.4584 34.3255 30.4246C34.3771 30.3909 34.425 30.3515 34.4681 30.3084C34.5122 30.2653 34.5506 30.2175 34.5853 30.1659C34.6189 30.1153 34.6481 30.0609 34.6715 30.0037C34.695 29.9475 34.7127 29.8884 34.7249 29.8284C34.7372 29.7684 34.7427 29.7065 34.7427 29.6456C34.7427 29.5846 34.7371 29.5228 34.7249 29.4618Z" fill="black"/>
<path d="M30.4035 28.7079H22.8136C22.2959 28.7079 21.8761 29.1276 21.8761 29.6454C21.8761 30.1632 22.2959 30.5829 22.8136 30.5829H30.4035C30.9212 30.5829 31.341 30.1632 31.341 29.6454C31.341 29.1276 30.9212 28.7079 30.4035 28.7079Z" fill="black"/>
<path d="M33.8056 32.5603H22.8136C22.2959 32.5603 21.8761 32.98 21.8761 33.4978C21.8761 34.0156 22.2959 34.4353 22.8136 34.4353H33.8056C34.3233 34.4353 34.7431 34.0156 34.7431 33.4978C34.7431 32.98 34.3233 32.5603 33.8056 32.5603Z" fill="black"/>
<path d="M14.9691 26.5131C12.1798 26.5131 9.91061 28.7823 9.91061 31.5717C9.91061 34.361 12.1798 36.6302 14.9691 36.6302C17.7583 36.6302 20.0275 34.361 20.0275 31.5717C20.0276 28.7823 17.7583 26.5131 14.9691 26.5131ZM14.9691 34.7552C13.2137 34.7552 11.7855 33.3271 11.7855 31.5716C11.7855 29.8161 13.2136 28.388 14.9691 28.388C16.7246 28.388 18.1526 29.8161 18.1526 31.5716C18.1526 33.3271 16.7245 34.7552 14.9691 34.7552Z" fill="black"/>
<path d="M17.0416 30.0964C16.6755 29.7303 16.0819 29.7303 15.7158 30.0965L14.5322 31.2801L13.9143 31.0276C13.4351 30.8318 12.8877 31.0613 12.6917 31.5406C12.4958 32.0198 12.7255 32.5672 13.2047 32.7631L14.3996 33.2516C14.5144 33.2985 14.6348 33.3213 14.7541 33.3213C14.9982 33.3213 15.238 33.226 15.4172 33.0467L17.0416 31.4222C17.4077 31.0561 17.4077 30.4625 17.0416 30.0964Z" fill="black"/>
</g>
<defs>
<clipPath id="clip0_308_66">
<rect width="48" height="48" fill="white"/>
</clipPath>
</defs>
</svg>
